<svg t="1736928488309" class="icon" viewBox="0 0 1824 1024" version="1.1" xmlns="http://www.w3.org/2000/svg" p-id="866" width="200" height="200"><path d="M1700.461996 964.373851a196.481631 196.481631 0 0 1-9.175381 54.312109l-0.391036 1.215005h-34.243582c0-0.363105 0.069828-0.768106 0.111724-1.215005 2.290354-26.255275-10.767456-184.122099-26.534586-211.452723 1.396557 2.220526 72.88632 73.724254 70.232861 157.140614z" fill="#F1F1F1" p-id="867"></path><path d="M1697.906296 1018.616132a67.411815 67.411815 0 0 1-0.893796 1.215005h-25.696653l0.684313-1.215005c4.189672-7.667099 16.758686-30.556671 28.461836-54.312109 12.569015-25.5151 24.034749-51.993824 23.057159-61.588172 0.307243 2.234491 8.924 68.138025-25.612859 115.900281z" fill="#F1F1F1" p-id="868"></path><path d="M94.784336 978.660631a145.898329 145.898329 0 0 0 6.815199 40.332572l0.293277 0.907762h25.431307c0-0.265346 0-0.572588-0.083794-0.907762-1.689834-19.551801 7.988307-136.75088 19.677491-157.042856-1.019487 1.647937-54.102625 54.759007-52.13348 116.710284z" fill="#F1F1F1" p-id="869"></path><path d="M96.683654 1018.993203l0.656382 0.907762h19.076971l-0.502761-0.907762a973.121048 973.121048 0 0 1-21.143875-40.332572A145.241947 145.241947 0 0 1 77.64858 932.923383a132.561208 132.561208 0 0 0 19.035074 86.06982z" fill="#F1F1F1" p-id="870"></path><path d="M1337.440921 718.272544a747.325682 747.325682 0 0 0-529.616382-28.629422c-252.246159-44.047414-424.958386-37.232215-535.761233 28.629422V513.788641h1065.377615z" fill="#CBCBCB" p-id="871"></path><path d="M1337.440921 662.047152c-176.985692-80.190314-353.761901-85.371541-533.191568 0a919.618942 919.618942 0 0 0-533.205534 0V40.411617a900.067141 900.067141 0 0 1 533.205534 0c182.725542-53.069173 360.618997-54.689179 533.191568 0z" fill="#E5E5E5" p-id="872"></path><path d="M319.001593 117.557436l-5.949334-15.236439a659.831374 659.831374 0 0 1 139.921064-33.517373c75.651503-10.166936 188.367633-12.569015 295.707019 33.517373l-6.46606 15.026955c-103.764199-44.620002-213.142558-42.25982-286.629397-32.442023a657.122053 657.122053 0 0 0-136.583292 32.651507z" fill="#FFFFFF" p-id="873"></path><path d="M319.001593 174.81628l-5.949334-15.236439a659.817408 659.817408 0 0 1 139.921064-33.517372c75.651503-10.166936 188.367633-12.569015 295.707019 33.517372l-6.46606 15.026956c-103.764199-44.620002-213.142558-42.273786-286.629397-32.442024a657.108087 657.108087 0 0 0-136.583292 32.651507z" fill="#FFFFFF" p-id="874"></path><path d="M319.001593 232.075125l-5.949334-15.236439a659.859305 659.859305 0 0 1 139.921064-33.517372c75.651503-10.166936 188.367633-12.569015 295.707019 33.517372l-6.46606 15.026955c-103.764199-44.620002-213.142558-42.273786-286.629397-32.442023a657.066191 657.066191 0 0 0-136.583292 32.651507z" fill="#FFFFFF" p-id="875"></path><path d="M319.001593 289.320004l-5.949334-15.236439a659.831374 659.831374 0 0 1 139.921064-33.517372c75.651503-10.166936 188.367633-12.569015 295.707019 33.517372l-6.46606 15.026955c-103.764199-44.620002-213.142558-42.273786-286.629397-32.442023a657.149984 657.149984 0 0 0-136.583292 32.651507z" fill="#FFFFFF" p-id="876"></path><path d="M319.001593 346.564883l-5.949334-15.236439a659.803443 659.803443 0 0 1 139.921064-33.517372c75.651503-10.166936 188.367633-12.569015 295.707019 33.517372l-6.46606 15.026956c-103.764199-44.620002-213.142558-42.273786-286.629397-32.442024a657.080156 657.080156 0 0 0-136.583292 32.651507z" fill="#FFFFFF" p-id="877"></path><path d="M319.001593 403.837693l-5.949334-15.236439a659.817408 659.817408 0 0 1 139.921064-33.517372c75.651503-10.166936 188.367633-12.569015 295.707019 33.517372l-6.46606 15.026956c-103.764199-44.620002-213.142558-42.25982-286.629397-32.442024a657.136019 657.136019 0 0 0-136.583292 32.651507z" fill="#FFFFFF" p-id="878"></path><path d="M852.709887 524.486269l-5.949334-15.236439a659.803443 659.803443 0 0 1 139.921065-33.517373c75.651503-10.166936 188.367633-12.569015 295.707018 33.517373l-6.466059 15.026955c-103.764199-44.620002-213.142558-42.25982-286.629397-32.442023a657.191881 657.191881 0 0 0-136.583293 32.651507z" fill="#5476FF" p-id="879"></path><path d="M847.696247 414.605149V101.874098l5.73985-1.787593a695.918412 695.918412 0 0 1 430.293234 0l5.586229 1.82949v312.22829l-11.060733-4.189671c-145.730742-55.010388-286.810949-55.038319-419.316295-0.097759z m215.809982-62.202657a618.018452 618.018452 0 0 1 209.483578 38.293598V113.870525a679.229553 679.229553 0 0 0-408.967807 0v276.378667a544.657303 544.657303 0 0 1 199.484229-37.8467z" fill="#FFFFFF" p-id="880"></path><path d="M1273.366877 516.372271l2.136733-52.049686 73.500804-146.149709a21.199738 21.199738 0 0 1 9.622279-9.566417 21.451118 21.451118 0 0 1 29.942186 12.471255 22.163363 22.163363 0 0 1 0.935694 4.189672 21.227669 21.227669 0 0 1-2.136733 12.219875l-73.598564 146.345228z" fill="#5476FF" p-id="881"></path><path d="M1367.774143 307.391454l-79.785312 158.648896-6.08899-3.05846 77.173751-153.439738a20.333873 20.333873 0 0 1 8.700551-2.150698z" fill="#3F3D56" p-id="882"></path><path d="M1388.499052 325.393076l-76.754783 152.573873-6.08899-3.05846 79.60376-158.313723a20.445597 20.445597 0 0 1 2.318285 4.804157 21.171807 21.171807 0 0 1 0.921728 3.994153z" fill="#3F3D56" p-id="883"></path><path d="M1380.845918 311.776644l-80.665143 160.33873-6.088989-3.05846 80.776867-160.604077a19.956802 19.956802 0 0 1 2.513803 1.061384 20.948358 20.948358 0 0 1 3.463462 2.262423z" fill="#3F3D56" p-id="884"></path><path d="M1282.59812 507.685686l-8.113997 6.535887 0.684313-17.233515a16.11627 16.11627 0 0 1 7.429684 10.697628z" fill="#3F3D56" p-id="885"></path><path d="M481.923954 695.480731l-9.7759-29.481323 10.348488-96.935034a12.569015 12.569015 0 0 1 3.365703-7.345891 12.778498 12.778498 0 0 1 19.314386 0.670348 13.225397 13.225397 0 0 1 1.396557 2.122767 12.666774 12.666774 0 0 1 1.396557 7.262097l-10.362454 97.060724z" fill="#5476FF" p-id="886"></path><path d="M490.764161 559.120887l-11.172458 105.216618-4.03605-0.432932 10.865215-101.767123a12.122116 12.122116 0 0 1 4.343293-3.016563z" fill="#3F3D56" p-id="887"></path><path d="M506.140256 564.832806l-10.809353 101.208499-4.03605-0.432933 11.172457-104.993169a12.177979 12.177979 0 0 1 2.304319 2.192595 12.569015 12.569015 0 0 1 1.396558 2.025008z" fill="#3F3D56" p-id="888"></path><path d="M498.961952 558.82761l-11.367976 106.375761-4.03605-0.432933 11.381941-106.515417a11.73108 11.73108 0 0 1 1.620006 0 12.401428 12.401428 0 0 1 2.402079 0.572589z" fill="#3F3D56" p-id="889"></path><path d="M485.233794 688.679497l-3.156219 5.348814-3.240012-9.7759a9.608313 9.608313 0 0 1 6.396231 4.427086z" fill="#3F3D56" p-id="890"></path><path d="M1534.551002 660.91594a16.982135 16.982135 0 0 1-29.481322-16.856445l0.111724-0.195518a18.294899 18.294899 0 0 1 1.606041-2.276388l-14.342642-101.822985-0.432933-3.044494-2.904839-20.780771-0.432932-2.988633 1.578109 0.069828 27.679764 1.270867 7.415718 0.335174 0.935694 18.951281 5.26502 106.571279a16.96817 16.96817 0 0 1 2.93277 20.780771z" fill="#FFB8B8" p-id="891"></path><path d="M1492.151526 537.641837l35.151344-3.226047a6.982786 6.982786 0 0 0 6.256576-7.513477l-6.507956-73.095804a26.646311 26.646311 0 1 0-53.069173 4.734329q0 0.754141 0.181552 1.508282l10.544007 71.68528a6.982786 6.982786 0 0 0 6.84313 5.921403z" fill="#CBCBCB" p-id="892"></path><path d="M1518.797837 478.581434a48.949329 48.949329 0 0 0-18.001622-56.337117c-13.253328-9.063656-31.394606-12.317634-50.918475 10.935043a243.168537 243.168537 0 0 0-49.298469 97.661244l79.98083 13.015913a256.701176 256.701176 0 0 0 38.237736-65.275083z" fill="#CBCBCB" p-id="893"></path><path d="M1389.420779 1002.430035H1366.615l-10.851249-87.983103h33.657028z" fill="#FFB8B8" p-id="894"></path><path d="M1322.65138 1023.601842h71.671315v-27.693729H1350.345109a27.693729 27.693729 0 0 0-27.693729 27.693729z" fill="#2F2E41" p-id="895"></path><path d="M1576.908582 982.54306l-21.660602 7.164339-37.902562-80.120486 31.953228-10.557972z" fill="#FFB8B8" p-id="896"></path><path d="M1520.152497 1023.601842l68.054232-22.498537-8.686586-26.297172-41.757059 13.797985a27.693729 27.693729 0 0 0-17.610587 34.997724z" fill="#2F2E41" p-id="897"></path><path d="M1468.577641 353.491807m-45.681386 0a45.681386 45.681386 0 1 0 91.362771 0 45.681386 45.681386 0 1 0-91.362771 0Z" fill="#FFB8B8" p-id="898"></path><path d="M1428.580243 977.934422l21.171807-139.781409a6.507956 6.507956 0 0 1 12.764532-0.558623l32.246506 133.203624a8.379343 8.379343 0 0 0 9.468658 6.298473l88.960692-14.300745a8.379343 8.379343 0 0 0 6.689509-10.697628l-116.012005-382.43322a6.507956 6.507956 0 0 1-0.111725-3.351738l3.854498-16.758686a8.379343 8.379343 0 0 0-4.329327-9.329002c-15.795062-8.058135-55.862287-24.816821-85.999992-6.46606a8.463137 8.463137 0 0 0-3.868463 5.446573l-90.622596 425.949942a8.379343 8.379343 0 0 0 7.44365 10.083143l109.294565 9.7759h0.740176a8.379343 8.379343 0 0 0 8.267618-7.108476z" fill="#2F2E41" p-id="899"></path><path d="M1498.882932 321.21737a34.56479 34.56479 0 0 1-9.035725-7.848651 11.717115 11.717115 0 0 1-1.801559-11.340045 11.912633 11.912633 0 0 1 14.482298-4.971743 34.592722 34.592722 0 0 1 13.30919 9.915556 34.201685 34.201685 0 0 1 8.560895 11.884702 10.390385 10.390385 0 0 1-16.758686 12.024357 34.341341 34.341341 0 0 1-8.379343-11.661253z" fill="#2F2E41" p-id="900"></path><path d="M1514.34282 308.201457A23.336471 23.336471 0 0 1 1541.93879 288.384311a39.215326 39.215326 0 0 1 27.288727 24.998373c10.306592 25.138029 2.569665 53.907107-7.359856 79.240655s-22.205259 51.044165-20.766806 78.207203a81.712561 81.712561 0 0 0 47.482945 68.822338 42.930168 42.930168 0 0 1-43.418963-10.320558 86.754132 86.754132 0 0 1-24.481648-94.965889 346.234458 346.234458 0 0 1 25.529066-44.68983 67.551471 67.551471 0 0 0 10.334523-49.214675 31.75771 31.75771 0 0 0-38.991877-23.657679z" fill="#2F2E41" p-id="901"></path><path d="M1465.840389 373.769817c3.980188-6.731406 8.002273-15.571613 0.726209-21.451118a14.999024 14.999024 0 0 0-11.256251-2.974667 53.683658 53.683658 0 0 1-25.138029-1.57811 23.518023 23.518023 0 0 1-13.644364-12.261772 24.216302 24.216302 0 0 1 9.608314-27.665798 32.372196 32.372196 0 0 1 35.821692-0.62845 36.897041 36.897041 0 0 1 34.662549 4.03605 55.094181 55.094181 0 0 1 20.738874 29.118217 56.197461 56.197461 0 0 1 1.717765 30.905811 45.932766 45.932766 0 0 1-28.489766 31.394605 16.535237 16.535237 0 0 1-16.339719-2.416044 30.724258 30.724258 0 0 1-8.267619-12.122116 19.551801 19.551801 0 0 1-0.139655-14.356608z" fill="#2F2E41" p-id="902"></path><path d="M1330.304514 414.535321a19.551801 19.551801 0 0 1 0.446898 3.044495l79.911002 46.086387 19.426111-11.172457 20.710943 27.107175-32.455989 23.140952a14.8873 14.8873 0 0 1-17.861967-0.432932l-82.396874-65.009737a19.551801 19.551801 0 1 1 12.233841-22.763883z" fill="#FFB8B8" p-id="903"></path><path d="M1413.329838 465.886729l25.822343 33.517373a8.379343 8.379343 0 0 0 12.652808 0.698278l29.243907-30.361153a23.252677 23.252677 0 0 0-27.763557-37.302042l-0.740175 0.586554-36.673592 20.501459a8.379343 8.379343 0 0 0-2.541734 12.415393z" fill="#CBCBCB" p-id="904"></path><path d="M426.452702 999.567092h24.788891l11.800908-95.62227h-36.589799z" fill="#A0616A" p-id="905"></path><path d="M420.140264 991.481026h48.879502a31.115294 31.115294 0 0 1 31.115294 31.115294v1.019487h-79.938934z" fill="#2F2E41" p-id="906"></path><path d="M233.434534 988.841533l24.509578 3.700877 25.961998-92.78726-32.120815-5.474504z" fill="#A0616A" p-id="907"></path><path d="M228.392962 979.889602l48.278982 7.290028a31.115294 31.115294 0 0 1 26.11562 35.41669l-0.153622 1.005522-79.031171-11.940564z" fill="#2F2E41" p-id="908"></path><path d="M309.868109 525.771101l27.526142 7.206235-1.82949 44.68983-0.223449 81.251697a16.283857 16.283857 0 1 1-21.548878 2.709321l-8.463136-81.544974z" fill="#A0616A" p-id="909"></path><path d="M305.077917 474.573315a22.470605 22.470605 0 0 1 13.895744-19.984734 20.948358 20.948358 0 0 1 22.735951 3.65898 20.02663 20.02663 0 0 1 6.675544 15.48782 519.156169 519.156169 0 0 1-5.893472 64.632666l-0.097759 0.60052-40.234812 13.546604z" fill="#CBCBCB" p-id="910"></path><path d="M377.014578 548.800329l61.53231-15.934717 28.44787 95.803823 1.005521 356.904154-47.063977-0.293277-19.719388-288.863888-125.368939 266.923975-50.55537-6.061058 110.286121-286.140602s-6.061058-50.55537 13.141603-75.833055l-4.050015-26.283207z" fill="#2F2E41" p-id="911"></path><path d="M335.522864 572.63956a9.426761 9.426761 0 0 1-2.011042-7.583305l-28.0708-84.212398a21.423187 21.423187 0 0 1 5.907437-22.610261l12.177979-11.074699 8.253653-33.028577 47.482944 11.60539-3.91036 15.64144 21.47905-3.91036 45.248452 100.761601-94.574852 37.804803-4.650536 0.069828a9.426761 9.426761 0 0 1-7.331925-3.463462z" fill="#CBCBCB" p-id="912"></path><path d="M401.468294 501.540834l27.121141-8.616758 22.344915 38.6986 43.293273 68.794407a16.283857 16.283857 0 1 1-16.758687 13.81195l-50.736922-64.395251z" fill="#A0616A" p-id="913"></path><path d="M370.017827 460.887054a22.470605 22.470605 0 0 1 1.061383-24.31406 20.948358 20.948358 0 0 1 21.171807-9.063656 20.02663 20.02663 0 0 1 13.965572 9.52452 519.393583 519.393583 0 0 1 29.565115 57.77557l0.237415 0.558623-26.758035 32.95875z" fill="#CBCBCB" p-id="914"></path><path d="M366.903504 370.250493m-37.707044 0a37.707044 37.707044 0 1 0 75.414088 0 37.707044 37.707044 0 1 0-75.414088 0Z" fill="#A0616A" p-id="915"></path><path d="M300.259795 318.03322m-36.324452 0a36.324452 36.324452 0 1 0 72.648905 0 36.324452 36.324452 0 1 0-72.648905 0Z" fill="#2F2E41" p-id="916"></path><path d="M268.935017 348.101096a36.310487 36.310487 0 0 0 56.099703-19.076971 36.310487 36.310487 0 1 1-70.861312-14.901265 36.310487 36.310487 0 0 0 14.761609 33.978236z" fill="#2F2E41" p-id="917"></path><path d="M412.291613 348.142993a66.573881 66.573881 0 0 0-16.940239-23.001297 17.610586 17.610586 0 0 0-23.294574-2.108801 43.209479 43.209479 0 1 0 25.626824 34.578755c6.228645-0.879831 8.365378-8.588827 14.607989-9.468657z" fill="#2F2E41" p-id="918"></path><path d="M781.136331 1023.992878H2.038973a2.052939 2.052939 0 0 1 0-4.091913h779.097358a2.052939 2.052939 0 1 1 0 4.091913z" fill="#CBCBCB" p-id="919"></path><path d="M1821.976437 1023.992878H1042.879079a2.052939 2.052939 0 0 1 0-4.091913h779.097358a2.052939 2.052939 0 0 1 0 4.091913z" fill="#CBCBCB" p-id="920"></path><path d="M802.196413 40.411617h4.091913v619.666389h-4.091913z" fill="#CBCBCB" p-id="921"></path></svg>